<svg width="200" height="200" viewBox="0 0 200 200" fill="none" xmlns="http://www.w3.org/2000/svg">
    <path
        d="M153.846 0C159.907 -9.03161e-08 165.909 1.1938 171.508 3.51325C177.108 5.8327 173.492 17.9364 177.778 22.2222C182.064 26.508 194.167 22.8919 196.487 28.4915C198.806 34.0912 200 40.0928 200 46.1538C200 52.2149 198.806 58.2165 196.487 63.8162C194.167 69.4158 190.768 74.5038 186.482 78.7895C182.196 83.0753 177.108 86.475 171.508 88.7944C165.909 91.1139 159.907 92.3077 153.846 92.3077H115.385C113.344 92.3077 111.388 91.4973 109.945 90.0547C108.503 88.6121 107.692 86.6555 107.692 84.6154V46.1538C107.692 33.9131 112.555 22.1737 121.21 13.5181C129.866 4.86262 141.605 0 153.846 0ZM46.1538 0.307692C33.9131 0.307692 22.1737 5.17031 13.5181 13.8258C4.86262 22.4814 9.16995e-07 34.2208 9.16995e-07 46.4615C9.16995e-07 58.7023 4.86262 70.4417 13.5181 79.0972C22.1737 87.7528 33.9131 92.6154 46.1538 92.6154H84.6154C86.6555 92.6154 88.6121 91.8049 90.0547 90.3624C91.4973 88.9198 92.3077 86.9632 92.3077 84.9231V46.4615C92.3077 34.2208 87.4451 22.4814 78.7895 13.8258C70.134 5.17031 58.3946 0.307692 46.1538 0.307692ZM46.1538 200C40.0928 200 34.0912 198.806 28.4915 196.487C22.8919 194.167 26.508 182.064 22.2222 177.778C17.9364 173.492 5.8327 177.108 3.51325 171.508C1.1938 165.909 0 159.907 0 153.846C0 147.785 1.1938 141.783 3.51325 136.184C5.8327 130.584 9.23237 125.496 13.5181 121.21C17.8039 116.925 22.8919 113.525 28.4915 111.206C34.0912 108.886 40.0928 107.692 46.1538 107.692H84.6154C86.6555 107.692 88.6121 108.503 90.0547 109.945C91.4973 111.388 92.3077 113.344 92.3077 115.385V153.846C92.3077 166.087 87.4451 177.826 78.7895 186.482C70.134 195.137 58.3946 200 46.1538 200ZM153.846 200C159.907 200 165.909 198.806 171.508 196.487C177.108 194.167 173.492 182.064 177.778 177.778C182.064 173.492 194.167 177.108 196.487 171.508C198.806 165.909 200 159.907 200 153.846C200 147.785 198.806 141.783 196.487 136.184C194.167 130.584 190.768 125.496 186.482 121.21C182.196 116.925 177.108 113.525 171.508 111.206C165.909 108.886 159.907 107.692 153.846 107.692H115.385C113.344 107.692 111.388 108.503 109.945 109.945C108.503 111.388 107.692 113.344 107.692 115.385V153.846C107.692 166.087 112.555 177.826 121.21 186.482C129.866 195.137 141.605 200 153.846 200Z"
        fill="#FFC701" />
</svg>
    